<mxfile host="Electron" modified="2024-05-19T09:20:09.165Z" agent="Mozilla/5.0 (Windows NT 10.0; Win64; x64) AppleWebKit/537.36 (KHTML, like Gecko) draw.io/24.0.4 Chrome/120.0.6099.109 Electron/28.1.0 Safari/537.36" etag="M3bQwKAxIC34DwLel2_I" version="24.0.4" type="device">
  <diagram name="Страница — 1" id="YItqsVURXmEpCJq-MBuc">
    <mxGraphModel dx="2577" dy="1035" grid="1" gridSize="10" guides="1" tooltips="1" connect="1" arrows="1" fold="1" page="1" pageScale="1" pageWidth="827" pageHeight="1169" math="0" shadow="0">
      <root>
        <mxCell id="0" />
        <mxCell id="1" parent="0" />
        <mxCell id="TzrBpOr762m9ODSbqr1M-1" value="Администрирование" style="shape=folder;fontStyle=1;spacingTop=10;tabWidth=40;tabHeight=14;tabPosition=left;html=1;whiteSpace=wrap;verticalAlign=top;fontSize=14;" parent="1" vertex="1">
          <mxGeometry x="20" y="70" width="350" height="190" as="geometry" />
        </mxCell>
        <mxCell id="TzrBpOr762m9ODSbqr1M-2" value="Хранилище данных" style="shape=folder;fontStyle=1;spacingTop=10;tabWidth=40;tabHeight=14;tabPosition=left;html=1;whiteSpace=wrap;fontSize=14;verticalAlign=top;" parent="1" vertex="1">
          <mxGeometry x="530" y="70" width="520" height="740" as="geometry" />
        </mxCell>
        <mxCell id="TzrBpOr762m9ODSbqr1M-3" value="Управление доступом" style="shape=folder;fontStyle=1;spacingTop=10;tabWidth=40;tabHeight=14;tabPosition=left;html=1;whiteSpace=wrap;" parent="1" vertex="1">
          <mxGeometry x="60" y="120" width="170" height="50" as="geometry" />
        </mxCell>
        <mxCell id="TzrBpOr762m9ODSbqr1M-5" value="Чат с клиентом" style="shape=folder;fontStyle=1;spacingTop=10;tabWidth=40;tabHeight=14;tabPosition=left;html=1;whiteSpace=wrap;" parent="1" vertex="1">
          <mxGeometry x="60" y="180" width="170" height="50" as="geometry" />
        </mxCell>
        <mxCell id="TzrBpOr762m9ODSbqr1M-6" value="Регистрация контрактов" style="shape=folder;fontStyle=1;spacingTop=10;tabWidth=0;tabHeight=50;tabPosition=left;html=1;whiteSpace=wrap;" parent="1" vertex="1">
          <mxGeometry x="590" y="990" width="170" height="50" as="geometry" />
        </mxCell>
        <mxCell id="TzrBpOr762m9ODSbqr1M-7" value="БД &quot;Клиенты компании&quot;" style="shape=folder;fontStyle=1;spacingTop=10;tabWidth=40;tabHeight=14;tabPosition=left;html=1;whiteSpace=wrap;" parent="1" vertex="1">
          <mxGeometry x="640" y="120" width="220" height="60" as="geometry" />
        </mxCell>
        <mxCell id="TzrBpOr762m9ODSbqr1M-8" value="БД &quot;Сотрудники&quot;" style="shape=folder;fontStyle=1;spacingTop=10;tabWidth=40;tabHeight=14;tabPosition=left;html=1;whiteSpace=wrap;" parent="1" vertex="1">
          <mxGeometry x="640" y="200" width="220" height="60" as="geometry" />
        </mxCell>
        <mxCell id="TzrBpOr762m9ODSbqr1M-9" value="БД &quot;Классификатор услуг&lt;span style=&quot;background-color: initial;&quot;&gt;&quot;&lt;/span&gt;" style="shape=folder;fontStyle=1;spacingTop=10;tabWidth=40;tabHeight=14;tabPosition=left;html=1;whiteSpace=wrap;" parent="1" vertex="1">
          <mxGeometry x="640" y="280" width="220" height="60" as="geometry" />
        </mxCell>
        <mxCell id="6i3R8H7jkvUq01OOMiSL-1" value="Контра&lt;span style=&quot;background-color: initial;&quot;&gt;кты&lt;/span&gt;" style="shape=folder;fontStyle=1;spacingTop=10;tabWidth=40;tabHeight=14;tabPosition=left;html=1;whiteSpace=wrap;" parent="1" vertex="1">
          <mxGeometry x="735" y="490" width="110" height="60" as="geometry" />
        </mxCell>
        <mxCell id="6i3R8H7jkvUq01OOMiSL-2" value="&lt;font style=&quot;font-size: 14px;&quot;&gt;Управление работами&lt;/font&gt;" style="shape=folder;fontStyle=1;spacingTop=10;tabWidth=40;tabHeight=14;tabPosition=left;html=1;whiteSpace=wrap;verticalAlign=top;" parent="1" vertex="1">
          <mxGeometry x="32.5" y="275" width="295" height="215" as="geometry" />
        </mxCell>
        <mxCell id="6i3R8H7jkvUq01OOMiSL-3" value="Управление заявками" style="shape=folder;fontStyle=1;spacingTop=10;tabWidth=40;tabHeight=14;tabPosition=left;html=1;whiteSpace=wrap;" parent="1" vertex="1">
          <mxGeometry x="60" y="330" width="160" height="60" as="geometry" />
        </mxCell>
        <mxCell id="6i3R8H7jkvUq01OOMiSL-4" value="Распределение работ" style="shape=folder;fontStyle=1;spacingTop=10;tabWidth=40;tabHeight=14;tabPosition=left;html=1;whiteSpace=wrap;" parent="1" vertex="1">
          <mxGeometry x="60" y="410" width="160" height="60" as="geometry" />
        </mxCell>
        <mxCell id="6i3R8H7jkvUq01OOMiSL-5" value="Подготовка аналитической отчётности" style="shape=folder;fontStyle=1;spacingTop=10;tabWidth=40;tabHeight=14;tabPosition=left;html=1;whiteSpace=wrap;verticalAlign=top;" parent="1" vertex="1">
          <mxGeometry x="30" y="520" width="320" height="240" as="geometry" />
        </mxCell>
        <mxCell id="QVwDzUjQs0HZspNr7ExK-1" value="Управление прайс-листом&lt;div&gt;&lt;br&gt;&lt;/div&gt;" style="shape=folder;fontStyle=1;spacingTop=10;tabWidth=40;tabHeight=14;tabPosition=left;html=1;whiteSpace=wrap;verticalAlign=top;" parent="1" vertex="1">
          <mxGeometry x="30" y="780" width="330" height="300" as="geometry" />
        </mxCell>
        <mxCell id="QVwDzUjQs0HZspNr7ExK-2" value="Добавление услуг" style="shape=folder;fontStyle=1;spacingTop=10;tabWidth=40;tabHeight=14;tabPosition=left;html=1;whiteSpace=wrap;" parent="1" vertex="1">
          <mxGeometry x="60" y="910" width="230" height="60" as="geometry" />
        </mxCell>
        <mxCell id="QVwDzUjQs0HZspNr7ExK-3" value="Формирование тарифов" style="shape=folder;fontStyle=1;spacingTop=10;tabWidth=40;tabHeight=14;tabPosition=left;html=1;whiteSpace=wrap;" parent="1" vertex="1">
          <mxGeometry x="60" y="990" width="230" height="60" as="geometry" />
        </mxCell>
        <mxCell id="QVwDzUjQs0HZspNr7ExK-6" value="БД &quot;История оказания услуг клиентам&quot;" style="shape=folder;fontStyle=1;spacingTop=10;tabWidth=40;tabHeight=14;tabPosition=left;html=1;whiteSpace=wrap;" parent="1" vertex="1">
          <mxGeometry x="640" y="360" width="220" height="70" as="geometry" />
        </mxCell>
        <mxCell id="MJm9Nv2B0gofzdtyWanB-1" value="Предмет договора" style="shape=folder;fontStyle=1;spacingTop=10;tabWidth=40;tabHeight=14;tabPosition=left;html=1;whiteSpace=wrap;" parent="1" vertex="1">
          <mxGeometry x="850" y="590" width="140" height="60" as="geometry" />
        </mxCell>
        <mxCell id="MJm9Nv2B0gofzdtyWanB-2" value="Права и обязанности сторон" style="shape=folder;fontStyle=1;spacingTop=10;tabWidth=40;tabHeight=14;tabPosition=left;html=1;whiteSpace=wrap;" parent="1" vertex="1">
          <mxGeometry x="560" y="590" width="180" height="60" as="geometry" />
        </mxCell>
        <mxCell id="MJm9Nv2B0gofzdtyWanB-3" value="" style="shape=orEllipse;perimeter=ellipsePerimeter;whiteSpace=wrap;html=1;backgroundOutline=1;" parent="1" vertex="1">
          <mxGeometry x="760" y="550" width="20" height="20" as="geometry" />
        </mxCell>
        <mxCell id="MJm9Nv2B0gofzdtyWanB-4" value="" style="shape=orEllipse;perimeter=ellipsePerimeter;whiteSpace=wrap;html=1;backgroundOutline=1;" parent="1" vertex="1">
          <mxGeometry x="800" y="550" width="20" height="20" as="geometry" />
        </mxCell>
        <mxCell id="MJm9Nv2B0gofzdtyWanB-5" value="" style="endArrow=none;html=1;rounded=0;exitX=0.404;exitY=0.75;exitDx=0;exitDy=0;exitPerimeter=0;entryX=0;entryY=1;entryDx=0;entryDy=0;" parent="1" target="MJm9Nv2B0gofzdtyWanB-3" edge="1">
          <mxGeometry width="50" height="50" relative="1" as="geometry">
            <mxPoint x="689.9999999999999" y="600" as="sourcePoint" />
            <mxPoint x="710" y="547" as="targetPoint" />
          </mxGeometry>
        </mxCell>
        <mxCell id="MJm9Nv2B0gofzdtyWanB-6" value="" style="endArrow=none;html=1;rounded=0;entryX=1;entryY=1;entryDx=0;entryDy=0;" parent="1" target="MJm9Nv2B0gofzdtyWanB-4" edge="1">
          <mxGeometry width="50" height="50" relative="1" as="geometry">
            <mxPoint x="910" y="590" as="sourcePoint" />
            <mxPoint x="960" y="540" as="targetPoint" />
          </mxGeometry>
        </mxCell>
        <mxCell id="MJm9Nv2B0gofzdtyWanB-7" value="Управление контрактами&lt;div style=&quot;font-size: 14px;&quot;&gt;&lt;br style=&quot;font-size: 14px;&quot;&gt;&lt;/div&gt;" style="shape=folder;fontStyle=1;spacingTop=10;tabWidth=40;tabHeight=14;tabPosition=left;html=1;whiteSpace=wrap;verticalAlign=top;fontSize=14;" parent="1" vertex="1">
          <mxGeometry x="550" y="830" width="430" height="260" as="geometry" />
        </mxCell>
        <mxCell id="MJm9Nv2B0gofzdtyWanB-8" value="Оформление документов" style="shape=folder;fontStyle=1;spacingTop=10;tabWidth=40;tabHeight=14;tabPosition=left;html=1;whiteSpace=wrap;" parent="1" vertex="1">
          <mxGeometry x="590" y="900" width="270" height="60" as="geometry" />
        </mxCell>
        <mxCell id="MJm9Nv2B0gofzdtyWanB-11" value="" style="endArrow=none;dashed=1;html=1;dashPattern=1 3;strokeWidth=2;rounded=0;exitX=1.002;exitY=0.257;exitDx=0;exitDy=0;exitPerimeter=0;" parent="1" source="TzrBpOr762m9ODSbqr1M-1" edge="1">
          <mxGeometry width="50" height="50" relative="1" as="geometry">
            <mxPoint x="470" y="67.33" as="sourcePoint" />
            <mxPoint x="610" y="170" as="targetPoint" />
          </mxGeometry>
        </mxCell>
        <mxCell id="MJm9Nv2B0gofzdtyWanB-12" value="" style="endArrow=classic;html=1;rounded=0;" parent="1" edge="1">
          <mxGeometry width="50" height="50" relative="1" as="geometry">
            <mxPoint x="600" y="170" as="sourcePoint" />
            <mxPoint x="610" y="170" as="targetPoint" />
          </mxGeometry>
        </mxCell>
        <mxCell id="MJm9Nv2B0gofzdtyWanB-13" value="" style="endArrow=none;dashed=1;html=1;dashPattern=1 3;strokeWidth=2;rounded=0;exitX=1.003;exitY=0.322;exitDx=0;exitDy=0;exitPerimeter=0;" parent="1" source="TzrBpOr762m9ODSbqr1M-1" edge="1">
          <mxGeometry width="50" height="50" relative="1" as="geometry">
            <mxPoint x="540" y="420" as="sourcePoint" />
            <mxPoint x="610" y="220" as="targetPoint" />
          </mxGeometry>
        </mxCell>
        <mxCell id="MJm9Nv2B0gofzdtyWanB-14" value="" style="endArrow=classic;html=1;rounded=0;entryX=0.173;entryY=0.224;entryDx=0;entryDy=0;entryPerimeter=0;" parent="1" target="TzrBpOr762m9ODSbqr1M-2" edge="1">
          <mxGeometry width="50" height="50" relative="1" as="geometry">
            <mxPoint x="610" y="220" as="sourcePoint" />
            <mxPoint x="610" y="210" as="targetPoint" />
            <Array as="points">
              <mxPoint x="610" y="220" />
            </Array>
          </mxGeometry>
        </mxCell>
        <mxCell id="MJm9Nv2B0gofzdtyWanB-15" value="" style="endArrow=none;dashed=1;html=1;dashPattern=1 3;strokeWidth=2;rounded=0;exitX=1.005;exitY=0.416;exitDx=0;exitDy=0;exitPerimeter=0;" parent="1" source="TzrBpOr762m9ODSbqr1M-1" edge="1">
          <mxGeometry width="50" height="50" relative="1" as="geometry">
            <mxPoint x="530" y="540" as="sourcePoint" />
            <mxPoint x="600" y="310" as="targetPoint" />
          </mxGeometry>
        </mxCell>
        <mxCell id="MJm9Nv2B0gofzdtyWanB-16" value="" style="endArrow=classic;html=1;rounded=0;" parent="1" edge="1">
          <mxGeometry width="50" height="50" relative="1" as="geometry">
            <mxPoint x="600" y="310" as="sourcePoint" />
            <mxPoint x="620" y="309.83" as="targetPoint" />
          </mxGeometry>
        </mxCell>
        <mxCell id="MJm9Nv2B0gofzdtyWanB-17" value="" style="endArrow=none;dashed=1;html=1;dashPattern=1 3;strokeWidth=2;rounded=0;exitX=1.008;exitY=0.478;exitDx=0;exitDy=0;exitPerimeter=0;" parent="1" source="TzrBpOr762m9ODSbqr1M-1" edge="1">
          <mxGeometry width="50" height="50" relative="1" as="geometry">
            <mxPoint x="380" y="340" as="sourcePoint" />
            <mxPoint x="619" y="381" as="targetPoint" />
          </mxGeometry>
        </mxCell>
        <mxCell id="MJm9Nv2B0gofzdtyWanB-18" value="" style="endArrow=classic;html=1;rounded=0;" parent="1" edge="1">
          <mxGeometry width="50" height="50" relative="1" as="geometry">
            <mxPoint x="620" y="380" as="sourcePoint" />
            <mxPoint x="630" y="380" as="targetPoint" />
          </mxGeometry>
        </mxCell>
        <mxCell id="MJm9Nv2B0gofzdtyWanB-19" value="" style="endArrow=none;dashed=1;html=1;dashPattern=1 3;strokeWidth=2;rounded=0;exitX=0.994;exitY=0.455;exitDx=0;exitDy=0;exitPerimeter=0;" parent="1" source="6i3R8H7jkvUq01OOMiSL-2" edge="1">
          <mxGeometry width="50" height="50" relative="1" as="geometry">
            <mxPoint x="440" y="450" as="sourcePoint" />
            <mxPoint x="540" y="640" as="targetPoint" />
          </mxGeometry>
        </mxCell>
        <mxCell id="MJm9Nv2B0gofzdtyWanB-20" value="" style="endArrow=classic;html=1;rounded=0;" parent="1" edge="1">
          <mxGeometry width="50" height="50" relative="1" as="geometry">
            <mxPoint x="530" y="640" as="sourcePoint" />
            <mxPoint x="550" y="640" as="targetPoint" />
          </mxGeometry>
        </mxCell>
        <mxCell id="MJm9Nv2B0gofzdtyWanB-21" value="" style="endArrow=none;dashed=1;html=1;dashPattern=1 3;strokeWidth=2;rounded=0;exitX=1.004;exitY=0.101;exitDx=0;exitDy=0;exitPerimeter=0;" parent="1" source="MJm9Nv2B0gofzdtyWanB-7" edge="1">
          <mxGeometry width="50" height="50" relative="1" as="geometry">
            <mxPoint x="1100" y="860" as="sourcePoint" />
            <mxPoint x="1160" y="880" as="targetPoint" />
          </mxGeometry>
        </mxCell>
        <mxCell id="MJm9Nv2B0gofzdtyWanB-22" value="" style="endArrow=none;dashed=1;html=1;dashPattern=1 3;strokeWidth=2;rounded=0;" parent="1" edge="1">
          <mxGeometry width="50" height="50" relative="1" as="geometry">
            <mxPoint x="870" y="519.9989473684211" as="sourcePoint" />
            <mxPoint x="1170" y="714.21" as="targetPoint" />
          </mxGeometry>
        </mxCell>
        <mxCell id="MJm9Nv2B0gofzdtyWanB-23" value="" style="endArrow=classic;html=1;rounded=0;" parent="1" edge="1">
          <mxGeometry width="50" height="50" relative="1" as="geometry">
            <mxPoint x="870" y="520" as="sourcePoint" />
            <mxPoint x="850" y="519.83" as="targetPoint" />
          </mxGeometry>
        </mxCell>
        <mxCell id="MJm9Nv2B0gofzdtyWanB-24" value="" style="endArrow=none;dashed=1;html=1;dashPattern=1 3;strokeWidth=2;rounded=0;" parent="1" edge="1">
          <mxGeometry width="50" height="50" relative="1" as="geometry">
            <mxPoint x="860" y="149.5" as="sourcePoint" />
            <mxPoint x="940" y="149.5" as="targetPoint" />
          </mxGeometry>
        </mxCell>
        <mxCell id="MJm9Nv2B0gofzdtyWanB-25" value="" style="endArrow=none;dashed=1;html=1;dashPattern=1 3;strokeWidth=2;rounded=0;" parent="1" edge="1">
          <mxGeometry width="50" height="50" relative="1" as="geometry">
            <mxPoint x="880" y="500" as="sourcePoint" />
            <mxPoint x="930" y="150" as="targetPoint" />
          </mxGeometry>
        </mxCell>
        <mxCell id="MJm9Nv2B0gofzdtyWanB-26" value="" style="endArrow=classic;html=1;rounded=0;" parent="1" edge="1">
          <mxGeometry width="50" height="50" relative="1" as="geometry">
            <mxPoint x="880" y="500" as="sourcePoint" />
            <mxPoint x="850" y="510" as="targetPoint" />
          </mxGeometry>
        </mxCell>
        <mxCell id="MJm9Nv2B0gofzdtyWanB-27" value="" style="endArrow=none;dashed=1;html=1;dashPattern=1 3;strokeWidth=2;rounded=0;" parent="1" edge="1">
          <mxGeometry width="50" height="50" relative="1" as="geometry">
            <mxPoint x="860" y="229.75" as="sourcePoint" />
            <mxPoint x="900" y="230" as="targetPoint" />
          </mxGeometry>
        </mxCell>
        <mxCell id="MJm9Nv2B0gofzdtyWanB-28" value="" style="endArrow=none;dashed=1;html=1;dashPattern=1 3;strokeWidth=2;rounded=0;" parent="1" edge="1">
          <mxGeometry width="50" height="50" relative="1" as="geometry">
            <mxPoint x="860" y="490" as="sourcePoint" />
            <mxPoint x="890" y="230" as="targetPoint" />
          </mxGeometry>
        </mxCell>
        <mxCell id="MJm9Nv2B0gofzdtyWanB-29" value="" style="endArrow=classic;html=1;rounded=0;" parent="1" edge="1">
          <mxGeometry width="50" height="50" relative="1" as="geometry">
            <mxPoint x="860" y="490" as="sourcePoint" />
            <mxPoint x="845" y="500" as="targetPoint" />
          </mxGeometry>
        </mxCell>
        <mxCell id="MJm9Nv2B0gofzdtyWanB-30" value="" style="endArrow=none;dashed=1;html=1;dashPattern=1 3;strokeWidth=2;rounded=0;exitX=1.002;exitY=0.142;exitDx=0;exitDy=0;exitPerimeter=0;" parent="1" source="QVwDzUjQs0HZspNr7ExK-1" edge="1">
          <mxGeometry width="50" height="50" relative="1" as="geometry">
            <mxPoint x="540" y="970" as="sourcePoint" />
            <mxPoint x="590" y="670" as="targetPoint" />
          </mxGeometry>
        </mxCell>
        <mxCell id="MJm9Nv2B0gofzdtyWanB-31" value="" style="endArrow=classic;html=1;rounded=0;" parent="1" edge="1">
          <mxGeometry width="50" height="50" relative="1" as="geometry">
            <mxPoint x="590" y="670" as="sourcePoint" />
            <mxPoint x="600" y="660" as="targetPoint" />
          </mxGeometry>
        </mxCell>
        <mxCell id="MJm9Nv2B0gofzdtyWanB-32" value="+&quot;Use&quot;" style="text;html=1;align=center;verticalAlign=middle;whiteSpace=wrap;rounded=0;" parent="1" vertex="1">
          <mxGeometry x="880" y="120" width="60" height="20" as="geometry" />
        </mxCell>
        <mxCell id="MJm9Nv2B0gofzdtyWanB-33" value="+&quot;Create&quot;" style="text;html=1;align=center;verticalAlign=middle;whiteSpace=wrap;rounded=0;" parent="1" vertex="1">
          <mxGeometry x="870" y="210" width="50" height="20" as="geometry" />
        </mxCell>
        <mxCell id="MJm9Nv2B0gofzdtyWanB-34" value="+&quot;Create&quot;" style="text;html=1;align=center;verticalAlign=middle;whiteSpace=wrap;rounded=0;" parent="1" vertex="1">
          <mxGeometry x="384" y="600" width="60" height="30" as="geometry" />
        </mxCell>
        <mxCell id="MJm9Nv2B0gofzdtyWanB-35" value="" style="endArrow=none;dashed=1;html=1;dashPattern=1 3;strokeWidth=2;rounded=0;" parent="1" edge="1">
          <mxGeometry width="50" height="50" relative="1" as="geometry">
            <mxPoint x="1150" y="880" as="sourcePoint" />
            <mxPoint x="1170" y="720" as="targetPoint" />
          </mxGeometry>
        </mxCell>
        <mxCell id="MJm9Nv2B0gofzdtyWanB-36" value="+&quot;Use&quot;" style="text;html=1;align=center;verticalAlign=middle;whiteSpace=wrap;rounded=0;" parent="1" vertex="1">
          <mxGeometry x="1050" y="850" width="60" height="30" as="geometry" />
        </mxCell>
        <mxCell id="MJm9Nv2B0gofzdtyWanB-37" value="" style="endArrow=none;dashed=1;html=1;dashPattern=1 3;strokeWidth=2;rounded=0;entryX=0.154;entryY=0.382;entryDx=0;entryDy=0;entryPerimeter=0;" parent="1" target="TzrBpOr762m9ODSbqr1M-2" edge="1">
          <mxGeometry width="50" height="50" relative="1" as="geometry">
            <mxPoint x="290" y="965" as="sourcePoint" />
            <mxPoint x="590" y="370" as="targetPoint" />
          </mxGeometry>
        </mxCell>
        <mxCell id="MJm9Nv2B0gofzdtyWanB-38" value="" style="endArrow=classic;html=1;rounded=0;" parent="1" edge="1">
          <mxGeometry width="50" height="50" relative="1" as="geometry">
            <mxPoint x="610" y="340" as="sourcePoint" />
            <mxPoint x="620" y="330" as="targetPoint" />
          </mxGeometry>
        </mxCell>
        <mxCell id="MJm9Nv2B0gofzdtyWanB-39" value="+&quot;Use&quot;" style="text;html=1;align=center;verticalAlign=middle;whiteSpace=wrap;rounded=0;rotation=-45;" parent="1" vertex="1">
          <mxGeometry x="470" y="505" width="60" height="30" as="geometry" />
        </mxCell>
        <mxCell id="MJm9Nv2B0gofzdtyWanB-40" value="" style="endArrow=none;dashed=1;html=1;dashPattern=1 3;strokeWidth=2;rounded=0;" parent="1" edge="1">
          <mxGeometry width="50" height="50" relative="1" as="geometry">
            <mxPoint x="290" y="1024.71" as="sourcePoint" />
            <mxPoint x="446" y="1025.21" as="targetPoint" />
            <Array as="points">
              <mxPoint x="366" y="1025.21" />
            </Array>
          </mxGeometry>
        </mxCell>
        <mxCell id="MJm9Nv2B0gofzdtyWanB-41" value="" style="endArrow=none;dashed=1;html=1;dashPattern=1 3;strokeWidth=2;rounded=0;" parent="1" edge="1">
          <mxGeometry width="50" height="50" relative="1" as="geometry">
            <mxPoint x="450" y="1020" as="sourcePoint" />
            <mxPoint x="460" y="230" as="targetPoint" />
          </mxGeometry>
        </mxCell>
        <mxCell id="MJm9Nv2B0gofzdtyWanB-42" value="" style="endArrow=none;dashed=1;html=1;dashPattern=1 3;strokeWidth=2;rounded=0;" parent="1" edge="1">
          <mxGeometry width="50" height="50" relative="1" as="geometry">
            <mxPoint x="460" y="240" as="sourcePoint" />
            <mxPoint x="610" y="290" as="targetPoint" />
          </mxGeometry>
        </mxCell>
        <mxCell id="MJm9Nv2B0gofzdtyWanB-43" value="" style="endArrow=classic;html=1;rounded=0;" parent="1" edge="1">
          <mxGeometry width="50" height="50" relative="1" as="geometry">
            <mxPoint x="610" y="290" as="sourcePoint" />
            <mxPoint x="630" y="290" as="targetPoint" />
          </mxGeometry>
        </mxCell>
        <mxCell id="MJm9Nv2B0gofzdtyWanB-44" value="+&quot;Use&quot;" style="text;html=1;align=center;verticalAlign=middle;whiteSpace=wrap;rounded=0;" parent="1" vertex="1">
          <mxGeometry x="384" y="980" width="60" height="30" as="geometry" />
        </mxCell>
        <mxCell id="MJm9Nv2B0gofzdtyWanB-45" value="" style="endArrow=none;dashed=1;html=1;dashPattern=1 3;strokeWidth=2;rounded=0;" parent="1" edge="1">
          <mxGeometry width="50" height="50" relative="1" as="geometry">
            <mxPoint x="990" y="630" as="sourcePoint" />
            <mxPoint x="1050" y="630" as="targetPoint" />
          </mxGeometry>
        </mxCell>
        <mxCell id="MJm9Nv2B0gofzdtyWanB-46" value="" style="endArrow=none;dashed=1;html=1;dashPattern=1 3;strokeWidth=2;rounded=0;" parent="1" edge="1">
          <mxGeometry width="50" height="50" relative="1" as="geometry">
            <mxPoint x="1040" y="630" as="sourcePoint" />
            <mxPoint x="1040" y="390" as="targetPoint" />
          </mxGeometry>
        </mxCell>
        <mxCell id="MJm9Nv2B0gofzdtyWanB-47" value="" style="endArrow=none;dashed=1;html=1;dashPattern=1 3;strokeWidth=2;rounded=0;" parent="1" edge="1">
          <mxGeometry width="50" height="50" relative="1" as="geometry">
            <mxPoint x="870" y="399.5" as="sourcePoint" />
            <mxPoint x="1040" y="399.5" as="targetPoint" />
          </mxGeometry>
        </mxCell>
        <mxCell id="MJm9Nv2B0gofzdtyWanB-48" value="" style="endArrow=classic;html=1;rounded=0;" parent="1" edge="1">
          <mxGeometry width="50" height="50" relative="1" as="geometry">
            <mxPoint x="870" y="400" as="sourcePoint" />
            <mxPoint x="860" y="399.83" as="targetPoint" />
          </mxGeometry>
        </mxCell>
        <mxCell id="MJm9Nv2B0gofzdtyWanB-49" value="+&quot;Import&quot;" style="text;html=1;align=center;verticalAlign=middle;whiteSpace=wrap;rounded=0;" parent="1" vertex="1">
          <mxGeometry x="950" y="370" width="60" height="30" as="geometry" />
        </mxCell>
        <mxCell id="MJm9Nv2B0gofzdtyWanB-50" value="Управление заявками" style="shape=folder;fontStyle=1;spacingTop=10;tabWidth=40;tabHeight=14;tabPosition=left;html=1;whiteSpace=wrap;" parent="1" vertex="1">
          <mxGeometry x="590" y="995" width="270" height="60" as="geometry" />
        </mxCell>
        <mxCell id="MJm9Nv2B0gofzdtyWanB-52" value="Поиск по прайс-листу" style="shape=folder;fontStyle=1;spacingTop=10;tabWidth=40;tabHeight=14;tabPosition=left;html=1;whiteSpace=wrap;" parent="1" vertex="1">
          <mxGeometry x="60" y="834.5" width="230" height="61" as="geometry" />
        </mxCell>
        <mxCell id="7GGmzaZCr2efjiMDa9ZU-1" value="Учёт количества клиентов" style="shape=folder;fontStyle=1;spacingTop=10;tabWidth=40;tabHeight=14;tabPosition=left;html=1;whiteSpace=wrap;" parent="1" vertex="1">
          <mxGeometry x="70" y="590" width="220" height="60" as="geometry" />
        </mxCell>
        <mxCell id="7GGmzaZCr2efjiMDa9ZU-2" value="Анализ оплаты услуг клиентов" style="shape=folder;fontStyle=1;spacingTop=10;tabWidth=40;tabHeight=14;tabPosition=left;html=1;whiteSpace=wrap;" parent="1" vertex="1">
          <mxGeometry x="70" y="670" width="220" height="60" as="geometry" />
        </mxCell>
        <mxCell id="l5dWjNXJ8gV-M97X55Qd-1" value="" style="endArrow=none;dashed=1;html=1;dashPattern=1 3;strokeWidth=2;rounded=0;" edge="1" parent="1">
          <mxGeometry width="50" height="50" relative="1" as="geometry">
            <mxPoint x="350" y="540" as="sourcePoint" />
            <mxPoint x="660" y="440" as="targetPoint" />
          </mxGeometry>
        </mxCell>
        <mxCell id="l5dWjNXJ8gV-M97X55Qd-2" value="" style="endArrow=classic;html=1;rounded=0;" edge="1" parent="1">
          <mxGeometry width="50" height="50" relative="1" as="geometry">
            <mxPoint x="660" y="440" as="sourcePoint" />
            <mxPoint x="669.2" y="433.32" as="targetPoint" />
          </mxGeometry>
        </mxCell>
        <mxCell id="l5dWjNXJ8gV-M97X55Qd-3" value="" style="ellipse;whiteSpace=wrap;html=1;" vertex="1" parent="1">
          <mxGeometry x="-630" y="430" width="120" height="80" as="geometry" />
        </mxCell>
      </root>
    </mxGraphModel>
  </diagram>
</mxfile>
